<svg xmlns="http://www.w3.org/2000/svg" viewBox="0 0 139.45 49.27"><g style="isolation:isolate"><path d="M14.2,7c0,3.32-2.27,5.4-5.71,5.4S2.79,10.29,2.79,7s2.27-5.39,5.7-5.39S14.2,3.66,14.2,7ZM3,47.64V14.89H14V47.64Z" style="fill:#bf7600"/><path d="M51.86,31.26C51.86,41.75,45,48.5,34.25,48.5s-17.6-6.75-17.6-17.24S23.52,14,34.25,14,51.86,20.71,51.86,31.26Zm-11.29,0c0-6.56-2.39-9.75-6.32-9.75s-6.31,3.19-6.31,9.75S30.33,41,34.25,41,40.57,37.77,40.57,31.26Z" style="fill:#bf7600"/><path d="M76.82,14.21v9c-8.28-.55-11.28,2.51-11.28,12.39v12h-11V14.89h11v6.62l2.33-4.6A9,9,0,0,1,74.31,14,15.38,15.38,0,0,1,76.82,14.21Z" style="fill:#bf7600"/><path d="M111.36,29.12V47.64h-11V31c0-1.05,0-2.82-.13-4.48-.24-3.13-2-5-5.27-5s-5.77,3.25-5.77,10.67V47.64h-11V14.89h11V20l2.95-4.05A13.61,13.61,0,0,1,99.46,14c6.74,0,10.73,3.19,11.59,8.89A42.49,42.49,0,0,1,111.36,29.12Z" style="fill:#bf7600"/></g><rect x="114.4" y="1.97" width="22.4" height="22.91" style="fill:#1d1d1b;stroke:#1d1d1b;stroke-miterlimit:10"/><rect x="114.76" y="2.34" width="21.64" height="22.13" style="fill:#1d1d1b;stroke:#ececec;stroke-miterlimit:10;stroke-width:0.25px"/><g style="isolation:isolate"><path d="M119.94,20V10.84h-3V9.36h4.73v9.16h3V20Zm-.29-14.47a1,1,0,0,1,.41-.89,1.29,1.29,0,0,1,.76-.3,1.32,1.32,0,0,1,.78.3,1,1,0,0,1,.41.89,1,1,0,0,1-.41.88,1.31,1.31,0,0,1-.78.29,1.28,1.28,0,0,1-.76-.29A1,1,0,0,1,119.65,5.52Z" style="fill:#d9d9d9"/></g></svg>