<svg aria-hidden="true" viewBox="0 0 139.45 49.27">
  <g aria-hidden="true" style="isolation:isolate" fill="#bf7600">
    <path d="M14.2 7c0 3.32-2.27 5.4-5.71 5.4s-5.7-2.11-5.7-5.4 2.27-5.39 5.7-5.39S14.2 3.66 14.2 7ZM3 47.64V14.89h11v32.75ZM51.86 31.26c0 10.49-6.86 17.24-17.61 17.24s-17.6-6.75-17.6-17.24S23.52 14 34.25 14s17.61 6.71 17.61 17.26Zm-11.29 0c0-6.56-2.39-9.75-6.32-9.75s-6.31 3.19-6.31 9.75S30.33 41 34.25 41s6.32-3.23 6.32-9.74ZM76.82 14.21v9c-8.28-.55-11.28 2.51-11.28 12.39v12h-11V14.89h11v6.62l2.33-4.6A9 9 0 0 1 74.31 14a15.38 15.38 0 0 1 2.51.21ZM111.36 29.12v18.52h-11V31c0-1.05 0-2.82-.13-4.48-.24-3.13-2-5-5.27-5s-5.77 3.25-5.77 10.67v15.45h-11V14.89h11V20l2.95-4.05A13.61 13.61 0 0 1 99.46 14c6.74 0 10.73 3.19 11.59 8.89a42.49 42.49 0 0 1 .31 6.23Z"/>
  </g>
  <path fill="#1d1d1b" stroke="#1d1d1b" stroke-miterlimit="10" d="M114.4 1.97h22.4v22.91h-22.4z"/>
  <path fill="#1d1d1b" stroke="#ececec" stroke-miterlimit="10" stroke-width=".25" d="M114.76 2.34h21.64v22.13h-21.64z"/>
  <path d="M119.94 20v-9.16h-3V9.36h4.73v9.16h3V20Zm-.29-14.47a1 1 0 0 1 .41-.89 1.29 1.29 0 0 1 .76-.3 1.32 1.32 0 0 1 .78.3 1 1 0 0 1 .41.89 1 1 0 0 1-.41.88 1.31 1.31 0 0 1-.78.29 1.28 1.28 0 0 1-.76-.29 1 1 0 0 1-.41-.89Z" fill="#d9d9d9" style="isolation:isolate"/>
</svg>
